<svg width="41" height="37" viewBox="0 0 41 37" fill="none" xmlns="http://www.w3.org/2000/svg">
<path d="M13.2098 24.0238H13.2117C13.2132 24.0238 13.2148 24.0235 13.2164 24.0235H34.9942C35.5303 24.0235 36.0017 23.6678 36.1491 23.1523L40.9538 6.33588C41.0573 5.97334 40.9847 5.58358 40.758 5.28266C40.5309 4.98174 40.1758 4.8047 39.7989 4.8047H10.4396L9.58093 0.940607C9.45862 0.391007 8.97127 0 8.40822 0H1.20117C0.537713 0 0 0.537713 0 1.20117C0 1.86463 0.537713 2.40235 1.20117 2.40235H7.44478C7.5968 3.08708 11.5538 20.8939 11.7815 21.9183C10.505 22.4732 9.60939 23.746 9.60939 25.2247C9.60939 27.2116 11.226 28.8282 13.2129 28.8282H34.9942C35.6577 28.8282 36.1954 28.2905 36.1954 27.627C36.1954 26.9635 35.6577 26.4258 34.9942 26.4258H13.2129C12.5507 26.4258 12.0117 25.8869 12.0117 25.2247C12.0117 24.5634 12.5488 24.0254 13.2098 24.0238ZM38.2064 7.20704L34.088 21.6211H14.1764L10.9732 7.20704H38.2064Z" fill="#121D46"/>
<path d="M12.0117 32.4316C12.0117 34.4186 13.6283 36.0352 15.6152 36.0352C17.6022 36.0352 19.2188 34.4186 19.2188 32.4316C19.2188 30.4447 17.6022 28.8281 15.6152 28.8281C13.6283 28.8281 12.0117 30.4447 12.0117 32.4316ZM15.6152 31.2305C16.2775 31.2305 16.8164 31.7694 16.8164 32.4316C16.8164 33.0939 16.2775 33.6328 15.6152 33.6328C14.953 33.6328 14.4141 33.0939 14.4141 32.4316C14.4141 31.7694 14.953 31.2305 15.6152 31.2305Z" fill="#121D46"/>
<path d="M28.9883 32.4316C28.9883 34.4186 30.6049 36.0352 32.5918 36.0352C34.5787 36.0352 36.1953 34.4186 36.1953 32.4316C36.1953 30.4447 34.5787 28.8281 32.5918 28.8281C30.6049 28.8281 28.9883 30.4447 28.9883 32.4316ZM32.5918 31.2305C33.254 31.2305 33.793 31.7694 33.793 32.4316C33.793 33.0939 33.254 33.6328 32.5918 33.6328C31.9296 33.6328 31.3906 33.0939 31.3906 32.4316C31.3906 31.7694 31.9296 31.2305 32.5918 31.2305Z" fill="#121D46"/>
</svg>
