<svg width="15" height="15" viewBox="0 0 15 15" fill="none" xmlns="http://www.w3.org/2000/svg">
<path d="M7.50672 3.13721C5.10804 3.13721 3.15656 5.08869 3.15656 7.48737C3.15656 8.32316 3.3941 9.13479 3.84344 9.83451L3.95143 10.0027L3.52832 11.5055L5.08312 11.1052L5.24348 11.2031C5.92329 11.6182 6.70592 11.8375 7.50672 11.8375C9.9054 11.8375 11.8569 9.88605 11.8569 7.48737C11.8569 5.08869 9.9054 3.13721 7.50672 3.13721ZM10.1743 8.82438L10.12 9.07788C10.0588 9.3639 9.88892 9.61692 9.64249 9.77454C9.33135 9.97357 8.92805 10.0713 8.41545 9.92634C6.82461 9.4765 5.92493 8.42325 5.44221 7.76497C4.95946 7.10669 4.77297 6.4484 4.89363 5.91082C4.97457 5.55027 5.23808 5.27363 5.40288 5.13049C5.48362 5.06038 5.58835 5.0247 5.69509 5.03053L6.03503 5.04906C6.10198 5.05271 6.16103 5.09405 6.18739 5.1557L6.68258 6.31431C6.70905 6.37622 6.69789 6.44778 6.65388 6.4987L6.22284 6.99734C6.18788 7.03776 6.18179 7.09536 6.20641 7.14279C6.77412 8.23633 7.80874 8.66965 8.11761 8.7782C8.17024 8.7967 8.22856 8.77922 8.26266 8.73501L8.71368 8.15033C8.76384 8.08529 8.85228 8.06357 8.92687 8.09796L10.0757 8.62752C10.1506 8.66204 10.1915 8.7438 10.1743 8.82438Z" fill="#121D46"/>
<path d="M0 0V15H15V0H0ZM7.50676 12.7264C6.60666 12.7264 5.72529 12.496 4.94558 12.0585L2.25442 12.7513L2.98916 10.1417C2.51668 9.33903 2.26792 8.42576 2.26792 7.48758C2.26792 4.59886 4.61805 2.24873 7.50676 2.24873C10.3955 2.24873 12.7456 4.59886 12.7456 7.48758C12.7456 10.3763 10.3955 12.7264 7.50676 12.7264Z" fill="#121D46"/>
</svg>
