<svg width="15" height="15" viewBox="0 0 15 15" fill="none" xmlns="http://www.w3.org/2000/svg">
<path d="M7.49984 6.00849C6.67764 6.00849 6.00816 6.67764 6.00816 7.49984C6.00816 8.32236 6.67764 8.99184 7.49984 8.99184C8.32236 8.99184 8.99151 8.32236 8.99151 7.49984C8.99151 6.67764 8.32236 6.00849 7.49984 6.00849ZM7.49984 6.00849C6.67764 6.00849 6.00816 6.67764 6.00816 7.49984C6.00816 8.32236 6.67764 8.99184 7.49984 8.99184C8.32236 8.99184 8.99151 8.32236 8.99151 7.49984C8.99151 6.67764 8.32236 6.00849 7.49984 6.00849ZM9.98486 3.57646H5.01514C4.22191 3.57646 3.57646 4.22191 3.57646 5.01514V9.98486C3.57646 10.7781 4.22191 11.4235 5.01514 11.4235H9.98486C10.7781 11.4235 11.4235 10.7781 11.4235 9.98486V5.01514C11.4235 4.22191 10.7781 3.57646 9.98486 3.57646ZM7.49984 10.0833C6.07564 10.0833 4.91673 8.92436 4.91673 7.49984C4.91673 6.07564 6.07564 4.91673 7.49984 4.91673C8.92436 4.91673 10.0833 6.07564 10.0833 7.49984C10.0833 8.92436 8.92436 10.0833 7.49984 10.0833ZM10.1662 5.45092C9.82917 5.45092 9.555 5.17675 9.555 4.83971C9.555 4.50267 9.82917 4.22849 10.1662 4.22849C10.5033 4.22849 10.7774 4.50267 10.7774 4.83971C10.7774 5.17675 10.5033 5.45092 10.1662 5.45092ZM7.49984 6.00849C6.67764 6.00849 6.00816 6.67764 6.00816 7.49984C6.00816 8.32236 6.67764 8.99184 7.49984 8.99184C8.32236 8.99184 8.99151 8.32236 8.99151 7.49984C8.99151 6.67764 8.32236 6.00849 7.49984 6.00849ZM9.98486 3.57646H5.01514C4.22191 3.57646 3.57646 4.22191 3.57646 5.01514V9.98486C3.57646 10.7781 4.22191 11.4235 5.01514 11.4235H9.98486C10.7781 11.4235 11.4235 10.7781 11.4235 9.98486V5.01514C11.4235 4.22191 10.7781 3.57646 9.98486 3.57646ZM7.49984 10.0833C6.07564 10.0833 4.91673 8.92436 4.91673 7.49984C4.91673 6.07564 6.07564 4.91673 7.49984 4.91673C8.92436 4.91673 10.0833 6.07564 10.0833 7.49984C10.0833 8.92436 8.92436 10.0833 7.49984 10.0833ZM10.1662 5.45092C9.82917 5.45092 9.555 5.17675 9.555 4.83971C9.555 4.50267 9.82917 4.22849 10.1662 4.22849C10.5033 4.22849 10.7774 4.50267 10.7774 4.83971C10.7774 5.17675 10.5033 5.45092 10.1662 5.45092ZM7.49984 6.00849C6.67764 6.00849 6.00816 6.67764 6.00816 7.49984C6.00816 8.32236 6.67764 8.99184 7.49984 8.99184C8.32236 8.99184 8.99151 8.32236 8.99151 7.49984C8.99151 6.67764 8.32236 6.00849 7.49984 6.00849ZM0 0V15H15V0H0ZM12.515 9.98486C12.515 11.3801 11.3801 12.515 9.98486 12.515H5.01514C3.61991 12.515 2.48502 11.3801 2.48502 9.98486V5.01514C2.48502 3.61991 3.61991 2.48502 5.01514 2.48502H9.98486C11.3801 2.48502 12.515 3.61991 12.515 5.01514V9.98486ZM9.98486 3.57646H5.01514C4.22191 3.57646 3.57646 4.22191 3.57646 5.01514V9.98486C3.57646 10.7781 4.22191 11.4235 5.01514 11.4235H9.98486C10.7781 11.4235 11.4235 10.7781 11.4235 9.98486V5.01514C11.4235 4.22191 10.7781 3.57646 9.98486 3.57646ZM7.49984 10.0833C6.07564 10.0833 4.91673 8.92436 4.91673 7.49984C4.91673 6.07564 6.07564 4.91673 7.49984 4.91673C8.92436 4.91673 10.0833 6.07564 10.0833 7.49984C10.0833 8.92436 8.92436 10.0833 7.49984 10.0833ZM10.1662 5.45092C9.82917 5.45092 9.555 5.17675 9.555 4.83971C9.555 4.50267 9.82917 4.22849 10.1662 4.22849C10.5033 4.22849 10.7774 4.50267 10.7774 4.83971C10.7774 5.17675 10.5033 5.45092 10.1662 5.45092ZM7.49984 6.00849C6.67764 6.00849 6.00816 6.67764 6.00816 7.49984C6.00816 8.32236 6.67764 8.99184 7.49984 8.99184C8.32236 8.99184 8.99151 8.32236 8.99151 7.49984C8.99151 6.67764 8.32236 6.00849 7.49984 6.00849ZM7.49984 6.00849C6.67764 6.00849 6.00816 6.67764 6.00816 7.49984C6.00816 8.32236 6.67764 8.99184 7.49984 8.99184C8.32236 8.99184 8.99151 8.32236 8.99151 7.49984C8.99151 6.67764 8.32236 6.00849 7.49984 6.00849ZM7.49984 6.00849C6.67764 6.00849 6.00816 6.67764 6.00816 7.49984C6.00816 8.32236 6.67764 8.99184 7.49984 8.99184C8.32236 8.99184 8.99151 8.32236 8.99151 7.49984C8.99151 6.67764 8.32236 6.00849 7.49984 6.00849ZM9.98486 3.57646H5.01514C4.22191 3.57646 3.57646 4.22191 3.57646 5.01514V9.98486C3.57646 10.7781 4.22191 11.4235 5.01514 11.4235H9.98486C10.7781 11.4235 11.4235 10.7781 11.4235 9.98486V5.01514C11.4235 4.22191 10.7781 3.57646 9.98486 3.57646ZM7.49984 10.0833C6.07564 10.0833 4.91673 8.92436 4.91673 7.49984C4.91673 6.07564 6.07564 4.91673 7.49984 4.91673C8.92436 4.91673 10.0833 6.07564 10.0833 7.49984C10.0833 8.92436 8.92436 10.0833 7.49984 10.0833ZM10.1662 5.45092C9.82917 5.45092 9.555 5.17675 9.555 4.83971C9.555 4.50267 9.82917 4.22849 10.1662 4.22849C10.5033 4.22849 10.7774 4.50267 10.7774 4.83971C10.7774 5.17675 10.5033 5.45092 10.1662 5.45092ZM7.49984 6.00849C6.67764 6.00849 6.00816 6.67764 6.00816 7.49984C6.00816 8.32236 6.67764 8.99184 7.49984 8.99184C8.32236 8.99184 8.99151 8.32236 8.99151 7.49984C8.99151 6.67764 8.32236 6.00849 7.49984 6.00849ZM7.49984 6.00849C6.67764 6.00849 6.00816 6.67764 6.00816 7.49984C6.00816 8.32236 6.67764 8.99184 7.49984 8.99184C8.32236 8.99184 8.99151 8.32236 8.99151 7.49984C8.99151 6.67764 8.32236 6.00849 7.49984 6.00849ZM7.49984 6.00849C6.67764 6.00849 6.00816 6.67764 6.00816 7.49984C6.00816 8.32236 6.67764 8.99184 7.49984 8.99184C8.32236 8.99184 8.99151 8.32236 8.99151 7.49984C8.99151 6.67764 8.32236 6.00849 7.49984 6.00849ZM9.98486 3.57646H5.01514C4.22191 3.57646 3.57646 4.22191 3.57646 5.01514V9.98486C3.57646 10.7781 4.22191 11.4235 5.01514 11.4235H9.98486C10.7781 11.4235 11.4235 10.7781 11.4235 9.98486V5.01514C11.4235 4.22191 10.7781 3.57646 9.98486 3.57646ZM7.49984 10.0833C6.07564 10.0833 4.91673 8.92436 4.91673 7.49984C4.91673 6.07564 6.07564 4.91673 7.49984 4.91673C8.92436 4.91673 10.0833 6.07564 10.0833 7.49984C10.0833 8.92436 8.92436 10.0833 7.49984 10.0833ZM10.1662 5.45092C9.82917 5.45092 9.555 5.17675 9.555 4.83971C9.555 4.50267 9.82917 4.22849 10.1662 4.22849C10.5033 4.22849 10.7774 4.50267 10.7774 4.83971C10.7774 5.17675 10.5033 5.45092 10.1662 5.45092ZM7.49984 6.00849C6.67764 6.00849 6.00816 6.67764 6.00816 7.49984C6.00816 8.32236 6.67764 8.99184 7.49984 8.99184C8.32236 8.99184 8.99151 8.32236 8.99151 7.49984C8.99151 6.67764 8.32236 6.00849 7.49984 6.00849Z" fill="#121D46"/>
</svg>
