<svg width="15" height="15" viewBox="0 0 15 15" fill="none" xmlns="http://www.w3.org/2000/svg">
<path d="M9.74517 3.4684C8.25547 3.18501 6.74471 3.18501 5.25469 3.4684C4.60299 3.61355 3.7831 4.39921 3.62281 5.03117C3.3562 6.25393 3.3562 7.49347 3.62281 8.71624C3.7831 9.34819 4.60299 10.1338 5.25469 10.279C5.25485 10.279 5.25502 10.2791 5.25518 10.2791C5.28421 10.2848 5.30538 10.3099 5.30538 10.3395V12.1308C5.30538 12.2203 5.41465 12.2644 5.47686 12.1996L6.32769 11.3264C6.32769 11.3264 7.00569 10.6304 7.1276 10.5052C7.13952 10.493 7.15597 10.4864 7.17302 10.4868C8.03205 10.5106 8.892 10.4412 9.74517 10.279C10.3969 10.1339 11.2171 9.34822 11.3771 8.71627C11.644 7.49351 11.644 6.25396 11.3771 5.0312C11.2171 4.39921 10.3972 3.61355 9.74517 3.4684ZM9.76788 8.80744C9.63754 9.08418 9.44789 9.31442 9.1743 9.46138C9.09712 9.50285 9.00486 9.51625 8.91774 9.54307C8.81755 9.51266 8.72206 9.49222 8.63339 9.45542C7.71456 9.07421 6.86893 8.58241 6.19909 7.82851C5.81818 7.3998 5.52001 6.9158 5.26802 6.40359C5.14851 6.16068 5.04779 5.90826 4.94513 5.65749C4.85149 5.4288 4.9894 5.19255 5.13458 5.02024C5.27082 4.85853 5.44612 4.73477 5.63597 4.64357C5.78415 4.57238 5.93032 4.61342 6.03854 4.73902C6.27249 5.01056 6.48739 5.29599 6.66141 5.61075C6.76841 5.80435 6.73905 6.04101 6.54512 6.17276C6.49799 6.20479 6.45504 6.24237 6.41113 6.27855C6.37262 6.31024 6.33638 6.34227 6.30998 6.38519C6.26173 6.46369 6.25943 6.55634 6.2905 6.64172C6.52965 7.29895 6.93275 7.81001 7.59426 8.08527C7.70014 8.12931 7.80642 8.18059 7.92837 8.16637C8.1326 8.14251 8.19873 7.9185 8.34184 7.80145C8.48172 7.68708 8.66048 7.68556 8.81116 7.78091C8.96188 7.8763 9.10798 7.9787 9.2532 8.08218C9.39575 8.18375 9.53768 8.28312 9.66917 8.39891C9.79553 8.51023 9.83907 8.6563 9.76788 8.80744ZM8.58152 6.66575C8.52448 6.66677 8.54689 6.66565 8.56858 6.66503C8.47666 6.6618 8.42666 6.60769 8.41678 6.51971C8.40958 6.45543 8.40388 6.39029 8.38854 6.32775C8.35833 6.20459 8.29286 6.09044 8.18928 6.01497C8.14037 5.97932 8.08494 5.95332 8.02688 5.9366C7.95312 5.91531 7.87653 5.92117 7.80294 5.90313C7.72302 5.88358 7.67882 5.81884 7.69136 5.74386C7.70278 5.67563 7.76917 5.62237 7.84372 5.62777C8.30968 5.66141 8.64271 5.90231 8.69024 6.45089C8.69359 6.48959 8.69754 6.53047 8.68895 6.5675C8.675 6.6277 8.63198 6.65903 8.5885 6.66473C8.59205 6.66479 8.59136 6.66509 8.58152 6.66575ZM8.29178 5.41109C8.1488 5.34109 7.99417 5.29757 7.83743 5.27164C7.76894 5.26032 7.69972 5.25344 7.63089 5.24386C7.54749 5.23227 7.50299 5.17912 7.50691 5.09693C7.51059 5.01991 7.56688 4.96452 7.65081 4.96925C7.92663 4.98492 8.19303 5.04453 8.43824 5.17438C8.93689 5.43845 9.22173 5.85527 9.30487 6.41185C9.30866 6.43706 9.31468 6.46204 9.31659 6.48735C9.32133 6.54983 9.32426 6.6124 9.32907 6.69478C9.32709 6.70979 9.32604 6.74507 9.31728 6.77832C9.28539 6.89898 9.10245 6.91409 9.06032 6.7923C9.04785 6.75616 9.04597 6.71505 9.04591 6.67615C9.04548 6.42159 8.99015 6.1673 8.86178 5.94582C8.72983 5.71825 8.5282 5.52689 8.29178 5.41109ZM9.83255 7.13122C9.73621 7.13237 9.69287 7.05177 9.68661 6.96537C9.67424 6.79435 9.66568 6.62257 9.64208 6.45296C9.51766 5.55766 8.80376 4.81696 7.91264 4.65802C7.77855 4.63409 7.64126 4.6278 7.50546 4.61355C7.41958 4.60453 7.30712 4.59933 7.28809 4.49259C7.27213 4.4031 7.34767 4.33184 7.43288 4.32726C7.45605 4.32601 7.47936 4.32707 7.50263 4.32717C8.65676 4.35952 7.57306 4.32967 7.50572 4.32733C8.70617 4.36232 9.69178 5.1595 9.90316 6.34665C9.9392 6.5491 9.95203 6.7561 9.96806 6.96158C9.97478 7.04798 9.92583 7.1301 9.83255 7.13122Z" fill="#121D46"/>
<path d="M0 0V15H15V0H0ZM12.2439 8.91253L12.241 8.92438C12.0014 9.89304 10.9211 10.9325 9.92908 11.1487L9.91789 11.151C9.11577 11.3041 8.30773 11.3804 7.50002 11.3804C7.26228 11.3804 7.02454 11.373 6.78693 11.3597L5.69138 12.4985C5.42017 12.7809 4.94325 12.5887 4.94325 12.1974V11.1161C3.98824 10.8433 2.98844 9.8517 2.75873 8.92434L2.7561 8.91249C2.45987 7.55972 2.45987 6.18786 2.7561 4.83509L2.75873 4.82324C2.99868 3.85458 4.07892 2.81515 5.07062 2.5989L5.08214 2.5966C6.68638 2.2905 8.31332 2.2905 9.91789 2.5966L9.92908 2.5989C10.9211 2.81515 12.0014 3.85458 12.241 4.82324L12.2439 4.83509C12.5402 6.18789 12.5402 7.55976 12.2439 8.91253Z" fill="#121D46"/>
</svg>
