<svg width="19" height="27" viewBox="0 0 19 27" fill="none" xmlns="http://www.w3.org/2000/svg">
<path d="M9.5 0C4.26174 0 0 4.21018 0 9.38507C0 15.8894 9.50934 27 9.50934 27C9.50934 27 19 15.5695 19 9.38507C19 4.21018 14.7384 0 9.5 0ZM12.3663 12.133C11.576 12.9137 10.5381 13.3041 9.5 13.3041C8.46209 13.3041 7.42385 12.9137 6.63382 12.133C5.05327 10.5718 5.05327 8.03128 6.63382 6.46985C7.39916 5.71344 8.41722 5.29684 9.5 5.29684C10.5828 5.29684 11.6007 5.7136 12.3663 6.46985C13.9469 8.03128 13.9469 10.5718 12.3663 12.133Z" fill="#FDD444"/>
</svg>
