<svg width="20" height="20" viewBox="0 0 20 20" fill="none" xmlns="http://www.w3.org/2000/svg">
<path d="M9.80978 7.85911C8.73435 7.85911 7.85868 8.73435 7.85868 9.80978C7.85868 10.8856 8.73435 11.7613 9.80978 11.7613C10.8856 11.7613 11.7609 10.8856 11.7609 9.80978C11.7609 8.73435 10.8856 7.85911 9.80978 7.85911ZM9.80978 7.85911C8.73435 7.85911 7.85868 8.73435 7.85868 9.80978C7.85868 10.8856 8.73435 11.7613 9.80978 11.7613C10.8856 11.7613 11.7609 10.8856 11.7609 9.80978C11.7609 8.73435 10.8856 7.85911 9.80978 7.85911ZM13.0602 4.67801H6.5598C5.52226 4.67801 4.67801 5.52226 4.67801 6.5598V13.0602C4.67801 14.0977 5.52226 14.942 6.5598 14.942H13.0602C14.0977 14.942 14.942 14.0977 14.942 13.0602V6.5598C14.942 5.52226 14.0977 4.67801 13.0602 4.67801ZM9.80978 13.1889C7.94693 13.1889 6.43108 11.6731 6.43108 9.80978C6.43108 7.94693 7.94693 6.43108 9.80978 6.43108C11.6731 6.43108 13.1889 7.94693 13.1889 9.80978C13.1889 11.6731 11.6731 13.1889 9.80978 13.1889ZM13.2974 7.12981C12.8566 7.12981 12.4979 6.77119 12.4979 6.33034C12.4979 5.88949 12.8566 5.53087 13.2974 5.53087C13.7383 5.53087 14.0969 5.88949 14.0969 6.33034C14.0969 6.77119 13.7383 7.12981 13.2974 7.12981ZM9.80978 7.85911C8.73435 7.85911 7.85868 8.73435 7.85868 9.80978C7.85868 10.8856 8.73435 11.7613 9.80978 11.7613C10.8856 11.7613 11.7609 10.8856 11.7609 9.80978C11.7609 8.73435 10.8856 7.85911 9.80978 7.85911ZM13.0602 4.67801H6.5598C5.52226 4.67801 4.67801 5.52226 4.67801 6.5598V13.0602C4.67801 14.0977 5.52226 14.942 6.5598 14.942H13.0602C14.0977 14.942 14.942 14.0977 14.942 13.0602V6.5598C14.942 5.52226 14.0977 4.67801 13.0602 4.67801ZM9.80978 13.1889C7.94693 13.1889 6.43108 11.6731 6.43108 9.80978C6.43108 7.94693 7.94693 6.43108 9.80978 6.43108C11.6731 6.43108 13.1889 7.94693 13.1889 9.80978C13.1889 11.6731 11.6731 13.1889 9.80978 13.1889ZM13.2974 7.12981C12.8566 7.12981 12.4979 6.77119 12.4979 6.33034C12.4979 5.88949 12.8566 5.53087 13.2974 5.53087C13.7383 5.53087 14.0969 5.88949 14.0969 6.33034C14.0969 6.77119 13.7383 7.12981 13.2974 7.12981ZM9.80978 7.85911C8.73435 7.85911 7.85868 8.73435 7.85868 9.80978C7.85868 10.8856 8.73435 11.7613 9.80978 11.7613C10.8856 11.7613 11.7609 10.8856 11.7609 9.80978C11.7609 8.73435 10.8856 7.85911 9.80978 7.85911ZM0 0V19.62H19.62V0H0ZM16.3696 13.0602C16.3696 14.8852 14.8852 16.3696 13.0602 16.3696H6.5598C4.73484 16.3696 3.25041 14.8852 3.25041 13.0602V6.5598C3.25041 4.73484 4.73484 3.25041 6.5598 3.25041H13.0602C14.8852 3.25041 16.3696 4.73484 16.3696 6.5598V13.0602ZM13.0602 4.67801H6.5598C5.52226 4.67801 4.67801 5.52226 4.67801 6.5598V13.0602C4.67801 14.0977 5.52226 14.942 6.5598 14.942H13.0602C14.0977 14.942 14.942 14.0977 14.942 13.0602V6.5598C14.942 5.52226 14.0977 4.67801 13.0602 4.67801ZM9.80978 13.1889C7.94693 13.1889 6.43108 11.6731 6.43108 9.80978C6.43108 7.94693 7.94693 6.43108 9.80978 6.43108C11.6731 6.43108 13.1889 7.94693 13.1889 9.80978C13.1889 11.6731 11.6731 13.1889 9.80978 13.1889ZM13.2974 7.12981C12.8566 7.12981 12.4979 6.77119 12.4979 6.33034C12.4979 5.88949 12.8566 5.53087 13.2974 5.53087C13.7383 5.53087 14.0969 5.88949 14.0969 6.33034C14.0969 6.77119 13.7383 7.12981 13.2974 7.12981ZM9.80978 7.85911C8.73435 7.85911 7.85868 8.73435 7.85868 9.80978C7.85868 10.8856 8.73435 11.7613 9.80978 11.7613C10.8856 11.7613 11.7609 10.8856 11.7609 9.80978C11.7609 8.73435 10.8856 7.85911 9.80978 7.85911ZM9.80978 7.85911C8.73435 7.85911 7.85868 8.73435 7.85868 9.80978C7.85868 10.8856 8.73435 11.7613 9.80978 11.7613C10.8856 11.7613 11.7609 10.8856 11.7609 9.80978C11.7609 8.73435 10.8856 7.85911 9.80978 7.85911ZM9.80978 7.85911C8.73435 7.85911 7.85868 8.73435 7.85868 9.80978C7.85868 10.8856 8.73435 11.7613 9.80978 11.7613C10.8856 11.7613 11.7609 10.8856 11.7609 9.80978C11.7609 8.73435 10.8856 7.85911 9.80978 7.85911ZM13.0602 4.67801H6.5598C5.52226 4.67801 4.67801 5.52226 4.67801 6.5598V13.0602C4.67801 14.0977 5.52226 14.942 6.5598 14.942H13.0602C14.0977 14.942 14.942 14.0977 14.942 13.0602V6.5598C14.942 5.52226 14.0977 4.67801 13.0602 4.67801ZM9.80978 13.1889C7.94693 13.1889 6.43108 11.6731 6.43108 9.80978C6.43108 7.94693 7.94693 6.43108 9.80978 6.43108C11.6731 6.43108 13.1889 7.94693 13.1889 9.80978C13.1889 11.6731 11.6731 13.1889 9.80978 13.1889ZM13.2974 7.12981C12.8566 7.12981 12.4979 6.77119 12.4979 6.33034C12.4979 5.88949 12.8566 5.53087 13.2974 5.53087C13.7383 5.53087 14.0969 5.88949 14.0969 6.33034C14.0969 6.77119 13.7383 7.12981 13.2974 7.12981ZM9.80978 7.85911C8.73435 7.85911 7.85868 8.73435 7.85868 9.80978C7.85868 10.8856 8.73435 11.7613 9.80978 11.7613C10.8856 11.7613 11.7609 10.8856 11.7609 9.80978C11.7609 8.73435 10.8856 7.85911 9.80978 7.85911ZM9.80978 7.85911C8.73435 7.85911 7.85868 8.73435 7.85868 9.80978C7.85868 10.8856 8.73435 11.7613 9.80978 11.7613C10.8856 11.7613 11.7609 10.8856 11.7609 9.80978C11.7609 8.73435 10.8856 7.85911 9.80978 7.85911ZM9.80978 7.85911C8.73435 7.85911 7.85868 8.73435 7.85868 9.80978C7.85868 10.8856 8.73435 11.7613 9.80978 11.7613C10.8856 11.7613 11.7609 10.8856 11.7609 9.80978C11.7609 8.73435 10.8856 7.85911 9.80978 7.85911ZM13.0602 4.67801H6.5598C5.52226 4.67801 4.67801 5.52226 4.67801 6.5598V13.0602C4.67801 14.0977 5.52226 14.942 6.5598 14.942H13.0602C14.0977 14.942 14.942 14.0977 14.942 13.0602V6.5598C14.942 5.52226 14.0977 4.67801 13.0602 4.67801ZM9.80978 13.1889C7.94693 13.1889 6.43108 11.6731 6.43108 9.80978C6.43108 7.94693 7.94693 6.43108 9.80978 6.43108C11.6731 6.43108 13.1889 7.94693 13.1889 9.80978C13.1889 11.6731 11.6731 13.1889 9.80978 13.1889ZM13.2974 7.12981C12.8566 7.12981 12.4979 6.77119 12.4979 6.33034C12.4979 5.88949 12.8566 5.53087 13.2974 5.53087C13.7383 5.53087 14.0969 5.88949 14.0969 6.33034C14.0969 6.77119 13.7383 7.12981 13.2974 7.12981ZM9.80978 7.85911C8.73435 7.85911 7.85868 8.73435 7.85868 9.80978C7.85868 10.8856 8.73435 11.7613 9.80978 11.7613C10.8856 11.7613 11.7609 10.8856 11.7609 9.80978C11.7609 8.73435 10.8856 7.85911 9.80978 7.85911Z" fill="#FDD444"/>
</svg>
