<svg width="57" height="50" viewBox="0 0 57 50" fill="none" xmlns="http://www.w3.org/2000/svg">
<path d="M55.0598 22.5309H56.3577L53.3157 8.73048H43.5713V10.0487H52.2612L54.7455 21.2026H44.1999V18.0288H47.0492L41.8069 13.0298V4.46157H36.1691V7.59481L28.2093 0L19.0834 8.73048H3.04198L0 22.5309H1.30803V48.2864H12.1679V50H44.2405V48.2864H55.1004L55.0598 22.5309ZM53.7416 22.5309V43.8248H44.1999V22.5309H53.7416ZM37.4366 5.77976H40.4786V11.7522L37.4366 8.85216V5.77976ZM43.7538 16.6903H12.5633L28.1585 1.80491L43.7538 16.6903ZM4.09651 10.0487H17.6232L9.278 18.0288H12.1273V21.233H1.60206L4.09651 10.0487ZM12.1273 22.5309V43.8248H2.58567V22.5309H12.1273ZM2.58567 46.9682V45.1024H12.1273V46.9682H2.58567ZM31.2817 48.6818H25.0152V39.424H31.2513L31.2817 48.6818ZM32.5998 48.6818V38.1059H23.7274V48.6818H13.4456V18.0288H42.8514V48.6818H32.5998ZM44.1999 46.9682V45.1024H53.7416V46.9682H44.1999Z" fill="#002F7D"/>
</svg>
