<svg width="51" height="45" viewBox="0 0 51 45" fill="none" xmlns="http://www.w3.org/2000/svg">
<path d="M50.9996 15.6458C50.9995 15.4723 50.9071 15.3121 50.7567 15.2253L45.7195 12.3165C47.2481 10.1293 48.8986 7.76937 49.3426 7.16693C49.4002 7.08882 49.433 6.99528 49.437 6.89845C49.6388 1.95673 45.3924 0.426282 45.3495 0.411461C45.2871 0.389837 45.2206 0.38109 45.1547 0.385949L32.8135 1.29125C32.0691 1.34834 31.3561 1.55244 30.6945 1.89806L24.5735 5.09466C23.9637 5.41307 23.4257 5.83778 22.9744 6.35676C22.9744 6.35676 14.7721 15.7469 14.7206 15.7871L9.68105 12.8772C9.53065 12.7903 9.34539 12.7903 9.19511 12.8772L1.88361 17.0992C1.73333 17.1859 1.6687 17.3487 1.64064 17.52C1.477 18.5219 0 27.2485 0 27.3555V35.5746C0 35.7482 0.0925707 35.9087 0.242968 35.9954L15.0617 44.5505C15.1375 44.5943 15.2212 44.6155 15.3043 44.6155C15.3891 44.6155 15.4724 44.5916 15.547 44.5485L15.5477 44.5497L20.37 41.7659C20.4194 42.7319 20.8116 43.5345 21.5339 43.9514C21.8648 44.1425 22.2309 44.2332 22.6136 44.2332C23.8648 44.2332 25.2906 43.2623 26.222 41.6491C26.7816 40.6798 27.07 39.6233 27.0342 38.6741C27.0247 38.4259 26.9932 38.192 26.9416 37.9734L34.6721 33.5522C34.7449 34.5091 35.1504 35.2451 35.825 35.6346C36.1559 35.8256 36.522 35.9164 36.9048 35.9164C38.156 35.9164 39.5819 34.9454 40.5132 33.3324C41.0813 32.3483 41.3503 31.3246 41.3318 30.4298C41.4983 31.105 41.8631 31.6267 42.3944 31.9336C42.7254 32.1246 43.0915 32.2153 43.4743 32.2153C44.7255 32.2153 46.1513 31.2443 47.0826 29.6312C47.6422 28.6619 47.9306 27.6054 47.8947 26.6562C47.8856 26.4154 47.8553 26.1883 47.8064 25.9753L48.7033 25.4577C48.8536 25.3709 48.9463 25.2104 48.9463 25.0368V20.1849L50.7564 19.1432C50.9071 19.0564 51 18.8958 51 18.722V15.6458H50.9996ZM17.3886 26.3802L23.7441 22.7115V30.4819L16.0214 34.9406L17.3886 26.3802ZM24.716 24.5451L32.2436 23.2077C32.9273 23.0862 33.5738 22.8396 34.1649 22.4745L41.0208 18.2415C41.5772 17.898 42.0629 17.4624 42.4646 16.9472C42.5649 16.8185 43.0067 16.1928 43.6364 15.2951L46.8965 17.1666L24.716 29.9326V24.5451ZM47.8712 16.6055L44.1961 14.4957C44.4961 14.067 44.8212 13.6019 45.1606 13.1161L49.5405 15.6453L47.8712 16.6055ZM46.8061 2.4864C47.948 3.57891 48.5076 5.00039 48.4706 6.71331C47.8951 7.50697 42.7732 14.8357 42.2006 15.6472C42.7118 12.8973 42.2555 10.033 40.8648 7.53175C39.4798 5.04085 37.2898 3.14716 34.6816 2.12851L45.117 1.36304C45.3612 1.46363 46.0876 1.79893 46.8061 2.4864ZM31.1444 2.7595C31.4348 2.60789 31.7375 2.49041 32.0491 2.40574L32.3641 2.46587C35.618 3.09224 38.4067 5.11082 40.0154 8.0042C41.599 10.8523 41.866 14.2111 40.7584 17.2485C40.6775 17.3061 40.5952 17.3621 40.5102 17.4146L34.0965 21.3746C35.1126 18.3168 34.8762 15.0013 33.3942 12.0773C31.7679 8.86868 28.8746 6.59098 25.4008 5.75906L31.1444 2.7595ZM24.2064 6.50473L24.6712 6.59426C28.09 7.25258 30.9533 9.41123 32.5273 12.5166C34.0523 15.5255 34.1447 18.9851 32.7933 22.0594C32.56 22.1422 24.7429 23.5579 24.7429 23.5579C24.7429 23.5579 24.7429 21.9084 24.7429 21.8545C24.7429 21.6809 24.6503 21.5204 24.4999 21.4336L22.9344 20.5298C22.7459 19.6863 22.3691 18.8404 21.8337 18.0718C21.7367 17.9305 21.6261 17.7824 21.4939 17.6173C20.9694 16.9684 20.3654 16.4246 19.6987 16.0012C18.6897 15.3607 17.6235 15.059 16.6564 15.103C16.6563 15.103 24.0286 6.65451 24.2064 6.50473ZM21.6878 19.81L15.6653 16.3325C16.6077 15.8507 17.9275 16.0282 19.1778 16.8217C19.7551 17.1884 20.28 17.6616 20.7366 18.2265C20.8523 18.371 20.949 18.5003 21.0343 18.6246C21.2988 19.0044 21.5176 19.4038 21.6878 19.81ZM9.43808 13.8591L23.2849 21.8543L16.9453 25.5139L3.09832 17.5199L9.43808 13.8591ZM2.5412 18.3205L16.4127 26.3287L15 35.1737L1.07137 27.1323L2.5412 18.3205ZM14.819 36.1915V40.2079L0.971871 32.2139V28.1971L14.819 36.1915ZM12.5986 40.0484V42.0064L3.34238 36.6626V34.7046L12.5986 40.0484ZM0.971871 33.3361L2.37039 34.1435V36.1013L0.971871 35.294V33.3361ZM13.5705 42.5674V40.6094L14.819 41.3301V43.2882L13.5705 42.5674ZM20.4675 40.5876L15.7908 43.2872V36.1959L23.7737 31.604V36.3599C23.6346 36.4131 23.4946 36.4755 23.354 36.5496C22.514 36.993 21.7432 37.771 21.1836 38.7403C20.8291 39.3544 20.5919 39.9837 20.4675 40.5876ZM25.3804 41.1635C24.4681 42.7435 22.9293 43.635 22.0198 43.11C21.1105 42.5849 21.1129 40.8065 22.0251 39.2264C22.4944 38.4137 23.1275 37.7682 23.8077 37.4092C24.1589 37.2239 24.4944 37.1304 24.7944 37.1304C25.0129 37.1304 25.2126 37.1801 25.3857 37.28C25.7964 37.517 26.0368 38.0253 26.0629 38.7113C26.0921 39.4798 25.8497 40.3507 25.3804 41.1635ZM39.6715 32.8467C38.7592 34.4269 37.22 35.3181 36.3109 34.7932C35.9003 34.5561 35.66 34.0478 35.6339 33.3619C35.6048 32.5933 35.8472 31.7223 36.3164 30.9095C37.2288 29.3294 38.7682 28.4384 39.677 28.963C40.5863 29.488 40.5837 31.2665 39.6715 32.8467ZM46.241 29.1455C45.3287 30.7258 43.7894 31.6173 42.8804 31.0921C42.4698 30.8551 42.2294 30.3468 42.2034 29.6608C42.1742 28.8923 42.4167 28.0213 42.8859 27.2085C43.3551 26.3958 43.9882 25.7503 44.6684 25.3912C45.0196 25.2058 45.355 25.1124 45.6551 25.1124C45.8736 25.1124 46.0732 25.1621 46.2463 25.262C46.657 25.499 46.8974 26.0073 46.9235 26.6933C46.9526 27.4619 46.7103 28.3328 46.241 29.1455ZM47.9744 24.7563L47.4261 25.0728C47.2435 24.8023 47.0112 24.5813 46.7324 24.4203C46.022 24.0101 45.1278 24.0498 44.2148 24.5317C43.3747 24.9751 42.6039 25.7532 42.0443 26.7226C41.6947 27.3281 41.4509 27.9679 41.326 28.5941L40.9007 28.8396C40.7142 28.5427 40.4681 28.2976 40.163 28.1214C38.7503 27.3059 36.691 28.3171 35.4749 30.4237C35.1066 31.0616 34.8566 31.7372 34.7384 32.3951L26.5553 37.0752C26.3743 36.8117 26.1454 36.5963 25.8718 36.4383C25.5325 36.2424 25.1509 36.1503 24.7455 36.1588V34.1129L47.9744 20.7443V24.7563ZM24.7455 32.9916V31.0541L48.1137 17.5871L50.0281 16.486V18.441L24.7455 32.9916Z" fill="#002F7D"/>
</svg>
