<svg width="20" height="20" viewBox="0 0 20 20" fill="none" xmlns="http://www.w3.org/2000/svg">
<path d="M0.380005 0V19.62H20V0H0.380005ZM16.3951 11.6576L16.3912 11.6731C16.0778 12.9401 14.6648 14.2997 13.3672 14.5825L13.3526 14.5855C12.3034 14.7857 11.2465 14.8856 10.19 14.8856C9.87906 14.8856 9.5681 14.8759 9.25731 14.8585L7.82434 16.3481C7.46959 16.7175 6.84577 16.466 6.84577 15.9541V14.5398C5.59662 14.1831 4.28889 12.886 3.98843 11.673L3.98498 11.6575C3.59752 9.88812 3.59752 8.09372 3.98498 6.3243L3.98843 6.3088C4.30227 5.04179 5.71523 3.68221 7.01238 3.39936L7.02745 3.39635C9.12579 2.99597 11.2538 2.99597 13.3526 3.39635L13.3672 3.39936C14.6648 3.68221 16.0778 5.04179 16.3912 6.3088L16.3951 6.3243C16.7825 8.09377 16.7825 9.88816 16.3951 11.6576Z" fill="#FDD444"/>
</svg>
